<svg width="43" height="40" fill="none" xmlns="http://www.w3.org/2000/svg"><g opacity=".35"><rect width="43" height="40" rx="3" fill="#F4F4F4"/><mask id="a" fill="#fff"><path fill-rule="evenodd" clip-rule="evenodd" d="M29 19v10H13V14h11"/></mask><path d="M29 29v1h1v-1h-1Zm-16 0h-1v1h1v-1Zm15-10v10h2V19h-2Zm1 9H13v2h16v-2Zm-15 1V14h-2v15h2Zm-1-14h11v-2H13v2Z" fill="#979797" mask="url(#a)"/><path stroke="#979797" d="m29.192 12.707 1.414 1.414-8.485 8.485-1.414-1.414z"/><path fill="#8C8C8C" stroke="#979797" stroke-width=".5" d="M20.25 22.25h1.5v.5h-1.5z"/><path fill="#8C8C8C" d="M19 23h1v1h-1z"/></g></svg>